<svg width="20" height="20" viewBox="0 0 20 20" fill="none" xmlns="http://www.w3.org/2000/svg">
<path d="M4.16663 2.5H15C15.663 2.5 16.2989 2.76339 16.7677 3.23223C17.2366 3.70107 17.5 4.33696 17.5 5V12.5C17.5 13.163 17.2366 13.7989 16.7677 14.2678C16.2989 14.7366 15.663 15 15 15H11.1783L8.08913 18.0892C7.97258 18.2057 7.82411 18.285 7.66249 18.3172C7.50086 18.3493 7.33333 18.3328 7.18108 18.2697C7.02883 18.2067 6.89869 18.0999 6.80712 17.9629C6.71555 17.8259 6.66666 17.6648 6.66663 17.5V15H4.16663C3.50358 15 2.8677 14.7366 2.39886 14.2678C1.93002 13.7989 1.66663 13.163 1.66663 12.5V5C1.66663 4.33696 1.93002 3.70107 2.39886 3.23223C2.8677 2.76339 3.50358 2.5 4.16663 2.5ZM15 3.33333H4.16663C3.7246 3.33333 3.30068 3.50893 2.98811 3.82149C2.67555 4.13405 2.49996 4.55797 2.49996 5V12.5C2.49996 12.942 2.67555 13.3659 2.98811 13.6785C3.30068 13.9911 3.7246 14.1667 4.16663 14.1667H7.49996V17.5L10.8333 14.1667H15C15.442 14.1667 15.8659 13.9911 16.1785 13.6785C16.491 13.3659 16.6666 12.942 16.6666 12.5V5C16.6666 4.55797 16.491 4.13405 16.1785 3.82149C15.8659 3.50893 15.442 3.33333 15 3.33333ZM9.16663 5H9.99996V9.16667H9.16663V5ZM9.16663 10.8333H9.99996V12.5H9.16663V10.8333Z" fill="#929292"/>
</svg>
